<?xml version="1.0" standalone="no"?>
<!DOCTYPE svg PUBLIC "-//W3C//DTD SVG 20010904//EN"
 "http://www.w3.org/TR/2001/REC-SVG-20010904/DTD/svg10.dtd">
<svg version="1.0" xmlns="http://www.w3.org/2000/svg"
 width="7973.000000pt" height="7973.000000pt" viewBox="0 0 7973.000000 7973.000000"
 preserveAspectRatio="xMidYMid meet">

<g transform="translate(0.000000,7973.000000) scale(0.100000,-0.100000)"
fill="#000000" stroke="none">
<path d="M42214 67242 c-218 -56 -393 -197 -498 -401 -198 -386 -384 -947
-491 -1476 -101 -504 -142 -906 -152 -1495 -19 -1158 157 -2379 549 -3805 104
-382 213 -731 433 -1395 235 -707 245 -747 285 -1105 44 -399 54 -606 54
-1165 1 -527 -5 -690 -40 -1070 -109 -1201 -396 -2161 -842 -2815 -105 -153
-170 -233 -292 -359 l-106 -109 -625 -283 c-343 -155 -625 -282 -626 -280 -3
3 -78 603 -112 906 -118 1032 -222 2156 -291 3145 -26 375 -35 461 -61 578
-27 128 -126 392 -1250 3329 -1444 3777 -1308 3425 -1364 3521 -88 149 -255
296 -414 362 -415 173 -900 29 -1145 -339 -135 -203 -269 -679 -336 -1188 -39
-301 -43 -390 -46 -927 -3 -501 -5 -545 -28 -730 -50 -384 -89 -806 -118
-1246 -21 -319 -18 -1371 5 -1655 52 -651 137 -1164 270 -1627 l35 -121 -13
-209 c-51 -773 -103 -1900 -136 -2903 -6 -195 -12 -356 -13 -357 -6 -6 -88
152 -120 229 -56 136 -74 230 -91 478 -9 124 -23 272 -31 330 -80 543 -375
1038 -966 1615 -293 287 -552 502 -681 565 -128 63 -188 75 -362 75 -171 -1
-228 -12 -365 -76 -261 -122 -420 -352 -420 -608 0 -53 48 -357 151 -966 82
-490 159 -973 170 -1075 56 -530 143 -949 244 -1183 19 -42 63 -125 99 -182
232 -369 465 -975 600 -1560 89 -386 143 -731 182 -1170 21 -246 30 -947 15
-1226 -67 -1217 -322 -2384 -819 -3754 -656 -1808 -1049 -4313 -1152 -7330
-72 -2128 72 -4322 287 -4353 86 -13 162 335 238 1098 111 1124 173 2079 270
4170 114 2466 196 3497 365 4586 96 621 185 1027 385 1759 647 2369 899 3738
918 4990 l2 140 109 -280 c497 -1279 785 -2327 856 -3110 6 -66 15 -219 20
-340 10 -231 22 -299 66 -387 21 -41 24 -61 24 -155 0 -147 17 -514 35 -768
105 -1458 438 -2803 997 -4018 111 -242 243 -496 409 -783 102 -177 165 -322
253 -586 604 -1811 527 -4157 -223 -6788 -153 -538 -299 -984 -528 -1615 -472
-1299 -823 -2417 -1208 -3845 -837 -3108 -1597 -7145 -2030 -10785 -25 -209
-47 -386 -50 -392 -3 -10 -704 -13 -3454 -13 l-3451 0 -4 23 c-3 12 -17 123
-31 247 -177 1524 -505 3516 -840 5115 -432 2057 -874 3649 -1468 5290 -454
1255 -690 2271 -784 3375 -24 291 -24 949 0 1220 46 497 129 925 256 1307 72
219 115 322 183 436 88 147 247 457 327 637 425 954 643 1942 692 3125 10 238
14 286 30 317 26 50 37 137 49 373 5 110 19 261 30 335 83 558 293 1268 631
2125 l24 60 8 -165 c43 -963 197 -1783 637 -3410 168 -621 236 -940 309 -1450
105 -725 158 -1421 236 -3095 67 -1435 109 -2096 180 -2845 51 -536 92 -781
145 -867 35 -59 66 -36 100 76 140 450 192 2082 115 3556 -99 1869 -368 3447
-788 4615 -336 935 -503 1655 -573 2480 -24 272 -24 828 0 1080 72 775 270
1462 555 1925 66 108 106 207 145 365 31 128 70 366 91 560 9 80 65 438 126
796 60 358 109 671 109 695 0 169 -112 335 -283 419 -205 101 -426 91 -601
-28 -164 -112 -543 -472 -695 -662 -160 -199 -287 -417 -346 -593 -42 -126
-63 -249 -79 -460 -9 -109 -23 -226 -31 -260 -17 -65 -115 -279 -120 -262 -2
6 -9 165 -15 355 -19 607 -44 1140 -80 1761 l-20 336 35 129 c146 530 202
1073 192 1852 -6 503 -27 806 -88 1285 -16 129 -20 233 -23 560 -4 417 -12
543 -56 805 -41 239 -111 486 -176 617 -131 266 -429 410 -723 351 -197 -40
-357 -161 -446 -336 -12 -25 -425 -1098 -918 -2385 -703 -1840 -899 -2361
-915 -2440 -13 -62 -29 -213 -42 -400 -57 -817 -144 -1731 -246 -2572 -21
-167 -41 -303 -46 -303 -4 0 -203 88 -441 195 l-432 195 -95 98 c-454 464
-731 1303 -811 2452 -16 225 -16 836 0 1055 34 482 45 536 231 1100 278 841
407 1315 524 1910 76 391 125 752 158 1160 16 207 16 817 0 1005 -58 659 -194
1203 -418 1668 -54 111 -74 143 -127 195 -108 108 -231 157 -397 157 -106 0
-181 -18 -289 -71 -145 -71 -263 -211 -306 -364 -10 -33 -418 -1318 -907
-2855 l-889 -2795 45 -600 c63 -819 167 -2328 166 -2386 -1 -31 -214 450 -355
801 -282 701 -472 1327 -531 1745 -18 131 -16 389 7 835 16 298 16 1248 1
1520 -52 919 -172 1634 -372 2214 -135 390 -324 746 -532 1001 -160 196 -331
285 -548 285 -322 0 -589 -216 -645 -522 -18 -99 -210 -5112 -203 -5298 l5
-115 236 -710 c317 -957 496 -1528 685 -2190 514 -1796 745 -3073 711 -3925
-11 -274 -11 -273 -77 -343 -184 -194 -521 -306 -882 -294 -464 16 -826 225
-1049 605 -30 51 -32 63 -51 265 -57 610 -162 1191 -295 1632 -203 676 -244
798 -343 1025 -285 650 -652 1020 -980 985 -139 -15 -286 -126 -385 -292 l-48
-80 15 -239 c33 -517 60 -1090 87 -1889 6 -181 15 -897 19 -1590 8 -1377 4
-1295 66 -1485 37 -113 127 -285 198 -381 124 -165 306 -318 483 -406 l72 -35
45 -187 c261 -1077 705 -4122 1020 -6996 20 -176 47 -423 61 -550 61 -561 155
-898 243 -871 43 14 81 159 103 392 15 164 15 770 0 1059 -67 1268 -269 2930
-590 4849 l-50 299 73 246 c103 342 199 688 258 930 27 114 51 207 52 208 4 4
310 -189 441 -277 1043 -700 1865 -1575 2359 -2511 l66 -126 35 -229 c28 -180
41 -238 60 -269 13 -22 512 -834 1109 -1805 l1086 -1765 0 -975 c-1 -2825 -27
-8237 -50 -10130 -15 -1270 -42 -2515 -56 -2578 l-4 -22 -4975 0 -4975 0 0
-1125 0 -1125 31890 0 31890 0 0 1125 0 1125 -4194 0 -4194 0 -6 83 c-9 116
-24 741 -36 1437 -29 1783 -48 4702 -57 8860 l-6 3245 1108 1800 1108 1800 37
236 38 237 58 108 c452 848 1119 1603 1994 2258 196 147 503 356 693 472 l121
74 42 -178 c63 -264 214 -805 316 -1132 l24 -74 -43 -255 c-407 -2429 -633
-4524 -610 -5636 10 -457 51 -700 121 -713 58 -12 126 159 180 458 31 172 45
281 106 850 328 3024 825 6406 1066 7246 14 49 18 53 80 84 173 85 361 242
479 398 118 158 211 367 252 569 17 81 18 146 15 788 -7 1368 41 3035 117
4115 l8 115 -41 75 c-53 96 -179 226 -256 264 -247 119 -534 -18 -802 -384
-181 -247 -363 -632 -486 -1025 -102 -325 -182 -593 -211 -700 -128 -481 -217
-1022 -267 -1623 -6 -78 -10 -88 -63 -174 -183 -297 -496 -498 -861 -553 -398
-61 -857 65 -1058 290 l-48 55 -12 182 c-15 220 -15 340 -2 558 57 939 341
2254 855 3965 168 557 277 899 546 1712 197 593 230 704 235 770 4 63 -169
4788 -191 5200 -7 134 -23 203 -72 303 -52 108 -167 221 -283 277 -199 97
-405 97 -600 1 -68 -33 -102 -59 -170 -127 -150 -151 -305 -385 -436 -656
-303 -633 -474 -1433 -546 -2570 -20 -322 -17 -1335 6 -1829 22 -466 19 -523
-39 -812 -87 -427 -297 -1068 -552 -1679 -146 -352 -288 -661 -291 -637 -7 50
129 2017 188 2727 l19 230 -894 2815 c-493 1548 -904 2841 -915 2874 -61 186
-246 349 -446 391 -200 42 -387 -5 -524 -131 -70 -66 -105 -125 -190 -321
-185 -428 -298 -890 -357 -1453 -25 -240 -25 -947 0 -1220 58 -624 165 -1215
342 -1875 84 -313 164 -573 330 -1075 84 -256 161 -501 169 -545 54 -271 80
-713 73 -1218 -9 -615 -60 -1055 -177 -1532 -131 -530 -319 -941 -564 -1233
-143 -171 -124 -159 -604 -376 -238 -108 -436 -196 -441 -196 -12 0 -14 15
-61 405 -97 815 -213 2053 -245 2630 -14 253 35 114 -936 2655 -489 1279 -908
2363 -931 2410 -75 154 -231 282 -396 324 -236 61 -480 -2 -645 -167 -110
-110 -170 -239 -240 -512 -89 -346 -119 -631 -118 -1130 0 -290 -3 -353 -24
-526 -153 -1231 -114 -2348 109 -3136 l34 -118 -14 -205 c-38 -591 -94 -1850
-94 -2122 0 -61 -4 -109 -10 -113 -15 -10 -97 169 -119 260 -11 44 -25 154
-31 245 -19 289 -62 462 -164 664 -116 228 -247 398 -505 657 -446 447 -621
541 -899 483 -255 -53 -432 -247 -432 -475 0 -42 42 -314 106 -692 58 -342
114 -703 125 -802 36 -320 87 -575 149 -745 15 -44 58 -128 93 -187 276 -460
462 -1085 542 -1828 22 -202 31 -804 16 -1041 -38 -584 -143 -1180 -316 -1789
-71 -254 -135 -448 -254 -784 -54 -152 -119 -343 -144 -426 -359 -1173 -585
-2675 -667 -4435 -53 -1142 -23 -2425 71 -3070 55 -376 120 -478 183 -287 76
229 168 1199 246 2597 5 102 28 565 50 1030 89 1885 146 2579 276 3370 69 420
124 663 289 1270 411 1511 591 2476 612 3269 5 201 8 239 18 220 22 -42 175
-446 252 -664 269 -763 432 -1481 433 -1902 0 -136 16 -247 46 -312 21 -46 24
-68 24 -165 0 -140 16 -429 36 -656 104 -1196 434 -2295 968 -3223 117 -203
200 -422 286 -752 300 -1146 254 -2535 -136 -4090 -133 -529 -262 -939 -514
-1640 -360 -998 -634 -1892 -929 -3030 -536 -2069 -1012 -4628 -1316 -7070
-26 -203 -50 -373 -54 -378 -4 -4 -2795 -6 -6202 -5 l-6194 3 -7 115 c-71
1240 -119 6504 -138 15104 l-9 4129 1564 2541 1563 2541 52 329 51 328 86 162
c418 783 921 1453 1593 2127 647 649 1361 1205 2233 1741 82 50 129 74 131 66
2 -7 30 -121 61 -253 91 -379 250 -952 424 -1524 l50 -163 -74 -447 c-437
-2632 -724 -4948 -815 -6576 -42 -757 -42 -1489 1 -1865 50 -453 165 -548 278
-234 93 256 145 562 226 1319 249 2329 637 5347 951 7385 214 1392 389 2349
550 3012 l56 227 81 40 c563 273 950 798 1053 1426 14 89 16 263 19 1575 2
1363 7 1731 35 2650 23 734 60 1573 100 2235 37 616 36 555 10 605 -32 62 -93
153 -153 227 -89 111 -203 193 -326 235 -94 32 -246 32 -351 -1 -551 -171
-1087 -1006 -1455 -2266 -30 -104 -86 -291 -125 -413 -221 -710 -376 -1548
-460 -2492 l-21 -235 -42 -72 c-120 -209 -298 -408 -477 -536 -118 -84 -322
-186 -460 -231 -359 -116 -763 -126 -1135 -29 -308 80 -585 241 -708 411 -34
46 -34 49 -43 192 -15 251 -10 911 9 1120 84 904 260 1863 572 3117 343 1378
729 2670 1426 4769 235 710 280 855 290 935 10 81 -8 603 -130 3789 -142 3714
-144 3751 -182 3870 -21 65 -97 205 -140 259 -129 165 -311 282 -515 333 -124
31 -342 31 -459 -1 -221 -59 -375 -170 -565 -407 -705 -878 -1121 -2332 -1240
-4334 -43 -736 -41 -1644 6 -2635 21 -448 21 -658 0 -815 -108 -795 -532
-2060 -1143 -3406 -58 -129 -107 -233 -109 -231 -11 10 151 2343 251 3638 l45
577 -1259 3958 c-692 2178 -1262 3973 -1266 3989 -22 99 -101 247 -181 340
-95 112 -268 220 -424 265 -107 31 -345 37 -446 12z m-6399 -11477 c73 -220
173 -511 223 -646 124 -335 180 -569 241 -1009 64 -451 124 -1170 181 -2140
36 -624 81 -1511 78 -1530 -2 -16 -24 -4 -128 72 -415 303 -789 619 -1077 910
l-143 144 5 65 c3 35 17 309 30 609 91 2001 181 2889 381 3770 53 234 54 236
67 190 6 -19 70 -215 142 -435z m-12441 -11732 c142 -599 215 -1291 276 -2628
11 -242 22 -469 25 -504 l5 -64 -108 -110 c-118 -121 -283 -268 -441 -396
-130 -105 -404 -311 -408 -307 -3 3 34 724 57 1126 61 1029 127 1629 216 1957
13 51 54 173 90 270 64 175 222 642 244 722 6 23 12 41 15 41 2 0 15 -48 29
-107z m34788 -628 c113 -314 132 -376 168 -555 76 -376 131 -971 190 -2040 39
-701 47 -865 44 -868 -3 -5 -254 183 -389 292 -187 149 -456 393 -526 477
l-40 48 21 443 c61 1313 117 1922 226 2483 32 164 46 226 76 339 10 40 10 38
75 -165 36 -112 105 -316 155 -454z"/>
<path d="M31154 56930 c-75 -30 -138 -89 -176 -167 -28 -58 -32 -75 -32 -147
1 -134 60 -234 176 -297 59 -32 69 -34 158 -34 84 0 102 3 152 28 64 32 125
94 159 165 19 38 23 64 24 137 0 79 -4 97 -28 146 -31 63 -93 126 -159 160
-62 33 -203 37 -274 9z"/>
<path d="M26392 44650 c-87 -21 -166 -111 -177 -204 -12 -102 39 -197 131
-242 46 -23 64 -26 123 -22 58 3 78 9 113 34 71 50 102 103 106 185 4 60 1 77
-23 124 -49 101 -160 152 -273 125z"/>
<path d="M54768 44566 c-203 -55 -237 -331 -53 -437 89 -51 209 -37 284 34 92
87 96 246 9 339 -57 60 -157 87 -240 64z"/>
<path d="M49589 42017 c-88 -33 -164 -103 -203 -186 -16 -36 -21 -65 -21 -136
0 -78 4 -97 28 -147 35 -72 110 -140 185 -168 77 -29 195 -25 267 10 66 32
131 99 163 168 21 46 26 72 26 137 0 65 -5 91 -26 137 -32 69 -96 136 -163
168 -60 30 -197 39 -256 17z"/>
<path d="M34029 39397 c-88 -33 -164 -103 -203 -186 -16 -36 -21 -65 -21 -136
0 -78 4 -97 28 -146 31 -64 93 -126 159 -160 61 -32 190 -38 256 -14 142 54
223 168 223 318 1 132 -58 234 -171 296 -57 31 -74 35 -150 38 -54 2 -98 -2
-121 -10z"/>
<path d="M13285 34046 c-89 -41 -135 -114 -135 -216 0 -102 46 -175 135 -216
160 -75 338 39 338 216 0 177 -178 291 -338 216z"/>
<path d="M67825 33978 c-57 -16 -137 -99 -154 -161 -30 -105 13 -216 103 -272
44 -27 58 -30 126 -30 68 0 82 3 126 30 30 19 60 49 79 80 27 43 30 57 30 124
-1 84 -14 118 -66 170 -17 17 -45 39 -62 47 -39 20 -130 26 -182 12z"/>
<path d="M24325 32186 c-89 -41 -135 -114 -135 -216 0 -255 338 -329 456 -100
26 50 24 153 -3 206 -62 119 -198 166 -318 110z"/>
<path d="M56786 32120 c-49 -16 -106 -62 -134 -109 -23 -39 -27 -58 -27 -122
0 -67 4 -81 30 -125 19 -30 49 -60 79 -79 44 -27 58 -30 125 -30 84 0 118 14
170 66 52 52 66 86 66 169 0 83 -14 117 -66 169 -17 17 -45 39 -62 48 -37 19
-140 26 -181 13z"/>
<path d="M50289 30927 c-96 -27 -173 -90 -221 -180 -20 -36 -23 -57 -23 -147
0 -91 3 -111 23 -148 36 -67 98 -129 161 -159 47 -23 70 -27 141 -28 77 0 92
3 152 33 73 36 124 87 160 161 19 38 23 63 23 141 0 89 -2 99 -34 158 -38 69
-93 121 -162 151 -59 26 -161 34 -220 18z"/>
<path d="M31519 30585 c-152 -49 -250 -197 -235 -354 25 -278 362 -407 565
-217 175 164 129 454 -88 554 -68 31 -174 39 -242 17z"/>
<path d="M12833 26186 c-61 -20 -100 -52 -133 -109 -25 -43 -30 -63 -30 -117
1 -143 96 -240 237 -240 196 1 308 220 193 379 -58 80 -174 117 -267 87z"/>
<path d="M68330 26111 c-149 -31 -231 -197 -166 -336 41 -89 114 -135 216
-135 102 0 175 46 216 135 83 178 -73 375 -266 336z"/>
<path d="M26155 25951 c-108 -27 -178 -116 -179 -231 -1 -84 36 -156 102 -200
53 -35 93 -44 168 -38 65 6 123 42 168 106 25 35 31 55 34 113 4 59 1 77 -22
123 -50 102 -161 154 -271 127z"/>
<path d="M55016 25869 c-90 -22 -156 -91 -177 -184 -33 -147 78 -285 229 -285
144 0 242 95 242 235 0 158 -142 271 -294 234z"/>
</g>
</svg>
